<?xml version="1.0" encoding="utf-8"?>
<!-- Generator: Adobe Illustrator 22.0.0, SVG Export Plug-In . SVG Version: 6.00 Build 0)  -->
<svg version="1.1" id="Capa_1" xmlns="http://www.w3.org/2000/svg" xmlns:xlink="http://www.w3.org/1999/xlink" x="0px" y="0px"
	 viewBox="0 0 800 800" style="enable-background:new 0 0 800 800;" xml:space="preserve">
<style type="text/css">
	.st0{display:none;fill:#FFFFFF;}
	.st1{fill:#6081C4;}
	.st2{fill:#FFFFFF;}
	.st3{display:none;}
	.st4{display:inline;fill:#E62B33;}
	.st5{display:inline;}
	.st6{display:inline;fill:#32C5F0;}
	.st7{display:inline;fill:#FFFFFF;}
	.st8{display:inline;fill:#F15A4B;}
	.st9{display:inline;fill:#23B180;}
	.st10{fill:#E62B33;}
	.st11{fill:#864C2D;}
	.st12{fill:#F89D45;}
	.st13{fill:#2797CF;}
	.st14{fill:#4189C9;}
	.st15{fill:#4C75A3;}
	.st16{fill:#43BDEF;}
	.st17{fill:#F171A6;}
	.st18{fill:#FCBA28;}
	.st19{fill:#00B9D8;}
	.st20{fill:#AE56A4;}
	.st21{fill:#9C9C9C;}
	.st22{fill:#84C75D;}
	.st23{fill:#0CA3D1;}
	.st24{fill:#639546;}
	.st25{fill:#29A8F7;}
	.st26{fill:#ED58A1;}
	.st27{fill:#F15B2D;}
	.st28{fill:#F15A4B;}
	.st29{fill:#036C69;}
</style>
<g id="_x31_">
	<g>
		<rect class="st0" width="800" height="800"/>
		<g>
			<g>
				<g>
					<ellipse id="XMLID_21_" class="st1" cx="94.5" cy="93.6" rx="56" ry="56"/>
					<path id="XMLID_19_" class="st2" d="M99.5,80.5v-5.3c0-2.6,1.7-3.2,2.9-3.2c1.2,0,7.4,0,7.4,0V60.6H99.5
						c-11.4,0-14,8.5-14,13.9v6H79v8v5.3h6.6c0,15,0,33.2,0,33.2h13.3c0,0,0-18.3,0-33.2h9.8l0.5-5.2l0.7-8.1
						C109.9,80.5,99.5,80.5,99.5,80.5z"/>
				</g>
				<g class="st3">
					<path id="XMLID_30_" class="st4" d="M608.8,93.6c0,30.9-25.1,56-56,56s-56-25.1-56-56s25.1-56,56-56
						C583.7,37.6,608.8,62.6,608.8,93.6z"/>
					<g class="st5">
						<path id="XMLID_27_" class="st2" d="M576.6,92.5c-0.4,0-0.8,0-1.2,0c0-0.1,0-0.2,0-0.2c0-0.3,0-0.6,0-0.8c0-1.5,0-3.1,0-4.6
							c0-0.3-0.3-0.7-0.4-0.7c-1.4-0.1-2.8,0-4.3,0c0,1.8,0,3.6,0,5.4c0,0.4,0,0.7,0,1.1c-2.2,0-4.2,0-6.5,0c0,0.5,0,0.8,0,1.1
							c0,1.2,0.1,2.3,0.2,3.5c1.1,0,2.3,0.1,3.4,0.1c1,0,1.9,0,3,0c0,2.2,0,4.3,0,6.3c1.6,0,3.1,0,4.7,0c0-2.1,0-4.2,0-6.4
							c2.2,0,4.3,0,6.4,0c0-1.2,0-2.4,0-3.6c0-0.4,0-0.8,0-1.2C580,92.5,578.3,92.5,576.6,92.5z"/>
						<path id="XMLID_26_" class="st2" d="M558.3,92c-4,0.1-8,0-12.1,0c-1.1,0-2.3,0-3.4,0c-0.2,0-0.6,0.3-0.6,0.4
							c0,2.3,0,4.6,0,7.1c3.3,0,6.5,0,9.8,0c-0.1,0.5-0.2,0.8-0.3,1.2c-1.5,4.5-6.1,6.7-11.1,5.9c-6.2-1-10-6.7-8.9-12.9
							c0.2-0.9,0.4-1.7,0.8-2.5c2-4.5,7.1-7.2,12-6.1c1.8,0.4,3.3,1.3,4.6,2.4c1.8-1.8,3.5-3.6,5.4-5.4c-0.1-0.1-0.3-0.2-0.5-0.3
							c-4.3-3.7-9.3-5-14.9-4.1c-8,1.3-13.8,7.6-15.1,15c-0.6,3.2-0.3,6.5,1,9.8c3.1,7.8,11,12.6,19.4,11.7c4.1-0.5,7.8-1.9,10.7-5
							c4.2-4.5,5.3-10,4.7-15.9C559.6,92.2,559.2,92,558.3,92z"/>
					</g>
				</g>
				<g class="st3">
					<path id="XMLID_76_" class="st6" d="M761.5,93.6c0,30.9-25.1,56-56,56s-56-25.1-56-56s25.1-56,56-56
						C736.4,37.6,761.5,62.6,761.5,93.6z"/>
					<path class="st7" d="M737.1,99.2c0.5-2.2,0.7-4.4,0.7-6.7c0-0.8,0-1.6-0.1-2.4c-1.2-16.1-14.9-28.8-31.6-28.8
						c-1.8,0-3.6,0.2-5.4,0.5c-2.8-1.8-6.2-2.8-9.8-2.8c-10.1,0-18.4,8.1-18.4,18.1c0,3.3,0.9,6.5,2.5,9.2c-0.2,1.1-0.4,2.3-0.5,3.4
						c-0.1,0.9-0.1,1.9-0.1,2.8c0,17.2,14.2,31.2,31.6,31.2c2,0,3.9-0.2,5.8-0.5c2.6,1.4,5.5,2.1,8.7,2.1c10.1,0,18.4-8.1,18.4-18.1
						C739,104.3,738.3,101.6,737.1,99.2z M722.4,107.4c-1.5,2-3.6,3.7-6.4,4.8c-2.8,1.1-6.1,1.7-9.9,1.7c-4.5,0-8.4-0.8-11.3-2.3
						c-2.1-1.1-3.9-2.7-5.2-4.6s-2-3.8-2-5.6c0-1.1,0.4-2.1,1.3-2.9c0.9-0.8,2-1.2,3.3-1.2c1.1,0,2,0.3,2.8,1
						c0.7,0.6,1.4,1.5,1.9,2.7c0.6,1.3,1.2,2.3,1.8,3.2c0.6,0.8,1.5,1.5,2.7,2s2.7,0.8,4.6,0.8c2.6,0,4.8-0.6,6.4-1.6
						c1.6-1.1,2.3-2.3,2.3-3.9c0-1.2-0.4-2.2-1.2-3c-0.9-0.8-2-1.4-3.4-1.8s-3.4-0.9-5.8-1.4c-3.3-0.7-6.1-1.5-8.3-2.4
						c-2.3-1-4.1-2.3-5.4-3.9c-0.4-0.5-0.8-1.1-1.1-1.8c-0.6-1.3-1-2.8-1-4.5c0-2.4,0.7-4.5,2.2-6.3c1.4-1.8,3.5-3.2,6.1-4.2
						s5.8-1.4,9.3-1.4c2.8,0,5.3,0.3,7.4,1c2.1,0.6,3.8,1.5,5.2,2.6s2.4,2.2,3.1,3.4c0.7,1.2,1,2.4,1,3.6c0,1.1-0.4,2.1-1.3,3
						c-0.9,0.9-2,1.3-3.3,1.3c-1.2,0-2.1-0.3-2.7-0.8c-0.6-0.5-1.2-1.3-1.9-2.5c-0.8-1.5-1.7-2.6-2.8-3.5c-1.1-0.8-2.8-1.2-5.3-1.2
						c-2.3,0-4.1,0.4-5.5,1.3c-1.3,0.9-2,1.8-2,3c0,0.7,0.2,1.3,0.6,1.8c0.4,0.5,1.1,1,1.9,1.4c0.8,0.4,1.7,0.7,2.5,1
						c0.2,0,0.3,0.1,0.5,0.1c0.9,0.2,2.2,0.5,3.8,0.9c2.6,0.5,4.9,1.1,7,1.8c2.1,0.7,3.9,1.5,5.4,2.4c1.5,1,2.7,2.2,3.6,3.7
						c0.9,1.5,1.3,3.3,1.3,5.5C724.6,103,723.9,105.3,722.4,107.4z"/>
				</g>
				<g class="st3">
					<path id="XMLID_41_" class="st8" d="M456,93.6c0,30.9-25.1,56-56,56s-56-25.1-56-56s25.1-56,56-56
						C430.9,37.6,456,62.6,456,93.6z"/>
					<path class="st7" d="M432.5,79.9c0,0-0.6-4.8-2.6-6.9c-2.5-2.8-5.4-2.8-6.6-2.9c-9.3-0.7-23.2-0.7-23.2-0.7l0,0
						c0,0-13.9,0-23.2,0.7c-1.3,0.2-4.1,0.2-6.6,2.9c-2,2.1-2.6,6.9-2.6,6.9s-0.7,5.6-0.7,11.2v0.7v4.6c0,5.6,0.7,11.2,0.7,11.2
						s0.6,4.8,2.6,6.9c2.5,2.8,5.8,2.7,7.3,3c5.3,0.5,22.6,0.7,22.6,0.7s13.9,0,23.2-0.7c1.3-0.2,4.1-0.2,6.6-2.9
						c2-2.1,2.6-6.9,2.6-6.9s0.7-5.6,0.7-11.2v-4.3v-1C433.2,85.5,432.5,79.9,432.5,79.9z M411.1,93l-17.9,9.7V87.8v-4.5l8.1,4.4
						L411.1,93z"/>
				</g>
				<g class="st3">
					<path id="XMLID_36_" class="st9" d="M303.3,93.6c0,30.9-25.1,56-56,56s-56-25.1-56-56s25.1-56,56-56
						C278.2,37.6,303.3,62.6,303.3,93.6z"/>
					<g class="st5">
						<path class="st2" d="M280.4,89.5C280,72,265.6,58,247.9,58c-17.5,0-31.8,13.7-32.5,30.9c0,0.5,0,0.9,0,1.4
							c0,6.1,1.7,11.8,4.7,16.7l-5.9,17.3l18-5.7c4.7,2.6,10,4,15.7,4c18,0,32.6-14.5,32.6-32.3C280.4,90.1,280.4,89.8,280.4,89.5z
							 M247.9,117.5c-5.6,0-10.7-1.7-15.1-4.5l-10.5,3.3l3.4-10.1c-3.3-4.5-5.2-10-5.2-15.9c0-0.9,0-1.8,0.1-2.6
							c1.3-13.8,13.1-24.5,27.3-24.5c14.4,0,26.2,11.1,27.3,25.1c0.1,0.7,0.1,1.4,0.1,2.1C275.2,105.3,263,117.5,247.9,117.5z"/>
						<path id="XMLID_32_" class="st2" d="M262.8,96.8c-0.8-0.4-4.7-2.3-5.5-2.6c-0.7-0.3-1.3-0.4-1.8,0.4s-2.1,2.6-2.5,3.1
							c-0.5,0.5-0.9,0.6-1.7,0.2s-3.4-1.2-6.4-3.9c-2.4-2.1-4-4.7-4.4-5.5c-0.5-0.8,0-1.2,0.3-1.6c0.4-0.4,0.8-0.9,1.2-1.4
							c0.1-0.1,0.2-0.3,0.3-0.4c0.2-0.3,0.3-0.6,0.5-0.9c0.3-0.5,0.1-1-0.1-1.4c-0.2-0.4-1.8-4.3-2.5-5.9s-1.3-1.3-1.8-1.3
							s-1-0.1-1.5-0.1s-1.4,0.2-2.1,1c-0.7,0.8-2.8,2.7-2.8,6.6c0,0.9,0.2,1.8,0.4,2.7c0.8,2.8,2.5,5.1,2.8,5.5
							c0.4,0.5,5.5,8.8,13.6,12s8.1,2.1,9.6,2s4.7-1.9,5.4-3.8c0.7-1.8,0.7-3.4,0.5-3.8C264.1,97.4,263.6,97.2,262.8,96.8z"/>
					</g>
				</g>
			</g>
			<g class="st3">
				<g class="st5">
					<path id="XMLID_25_" class="st10" d="M761.5,246.8c0,30.9-25.1,56-56,56s-56-25.1-56-56s25.1-56,56-56
						C736.4,190.8,761.5,215.8,761.5,246.8z"/>
					<path id="XMLID_23_" class="st2" d="M708.3,211.5c-18.7,0-28.1,13-28.1,23.8c0,2,0.2,3.9,0.7,5.7c1.1,4.1,3.5,7.3,7.3,8.8
						c0.9,0.4,1.7,0,2-1c0.2-0.7,0.6-2.4,0.8-3.1c0.3-1,0.2-1.3-0.6-2.1c-1-1.1-1.7-2.4-2.1-3.9c-0.3-1-0.5-2.2-0.5-3.5
						c0-9.6,7.5-18.3,19.4-18.3c10.6,0,16.4,6.3,16.4,14.6c0,2.5-0.3,4.8-0.7,7c-1.6,7.6-6,13.2-11.8,13.2c-4.1,0-7.2-3.3-6.2-7.3
						c0.6-2.3,1.4-4.7,2.1-6.9c0.8-2.5,1.4-4.8,1.4-6.6c0-3.1-1.7-5.7-5.3-5.7c-4.2,0-7.6,4.2-7.6,9.9c0,1.1,0.1,2,0.3,2.9
						c0.4,2,1,3.2,1,3.2s-4.3,17.7-5.1,20.8c-1.5,6.2-0.2,13.7-0.1,14.5c0.1,0.5,0.7,0.6,0.9,0.2c0.4-0.5,5.4-6.5,7.1-12.5
						c0.5-1.7,2.8-10.5,2.8-10.5c1.4,2.5,5.4,4.7,9.6,4.7c10.3,0,17.9-7.4,20.4-18.2c0.6-2.5,0.9-5.1,0.9-7.9
						C733.2,222,723.3,211.5,708.3,211.5z"/>
				</g>
				<g class="st5">
					<path id="XMLID_115_" class="st11" d="M150.5,246.8c0,30.9-25.1,56-56,56s-56-25.1-56-56s25.1-56,56-56
						C125.5,190.8,150.5,215.8,150.5,246.8z"/>
					<path class="st2" d="M114.9,213.6H74.2c-7.1,0-12.8,5.8-12.8,12.8V240v5v22.2c0,7.1,5.7,12.8,12.8,12.8h40.7
						c7.1,0,12.8-5.8,12.8-12.8V245v-5v-13.5C127.7,219.4,121.9,213.6,114.9,213.6z M118.6,221.3h1.5v1.5v9.8h-11.2v-11.2
						L118.6,221.3z M85,240c2.1-2.9,5.6-4.9,9.5-4.9s7.3,1.9,9.5,4.9c0.3,0.4,0.5,0.7,0.7,1.1c1,1.7,1.5,3.6,1.5,5.7
						c0,6.4-5.2,11.7-11.7,11.7c-6.4,0-11.7-5.2-11.7-11.7c0-2.1,0.6-4,1.5-5.7C84.6,240.7,84.8,240.3,85,240z M121.2,267.1
						c0,3.5-2.9,6.4-6.4,6.4H74.2c-3.5,0-6.4-2.9-6.4-6.4v-23.7V240h9.9c-0.2,0.6-0.5,1.2-0.6,1.9c-0.4,1.6-0.7,3.2-0.7,4.9
						c0,10,8.1,18.1,18.1,18.1s18.1-8.1,18.1-18.1c0-1.7-0.2-3.4-0.7-4.9c-0.2-0.6-0.4-1.3-0.6-1.9h9.9v3.4
						C121.2,243.4,121.2,267.1,121.2,267.1z"/>
				</g>
				<g class="st5">
					<path id="XMLID_60_" class="st12" d="M608.8,246.8c0,30.9-25.1,56-56,56s-56-25.1-56-56s25.1-56,56-56
						C583.7,190.8,608.8,215.8,608.8,246.8z"/>
					<path class="st2" d="M585.7,241.3l-0.6-1.2l-0.9-0.7c-1.2-1-7.4,0.1-9.1-1.4c-1.2-1.1-1.4-3-1.7-5.7c-0.7-5.1-1.1-5.4-1.9-7.1
						c-2.9-6.2-10.8-10.8-16.3-11.4h-14.7c-11.6,0-21,9.4-21,21V245v14.2c0,11.5,9.5,20.9,21,20.9h24.2c11.6,0,21-9.4,21-20.9
						l0.1-13.9v-3L585.7,241.3z M540.9,230.9h11.7c2.2,0,4,1.8,4,4s-1.8,4-4,4h-11.7c-2.2,0-4-1.8-4-4
						C536.8,232.7,538.6,230.9,540.9,230.9z M564.6,262.9h-23.7c-2.2,0-4-1.8-4-4s1.8-4,4-4h23.7c2.2,0,4,1.8,4,4
						S566.8,262.9,564.6,262.9z"/>
				</g>
				<g class="st5">
					<path id="XMLID_108_" class="st13" d="M303.3,246.8c0,30.9-25.1,56-56,56s-56-25.1-56-56s25.1-56,56-56
						C278.2,190.8,303.3,215.8,303.3,246.8z"/>
					<g>
						<polygon id="XMLID_106_" class="st2" points="215.5,244.6 215.5,277.1 231,277.1 231,242 231,232.9 215.5,232.9 						"/>
						<path id="XMLID_105_" class="st2" d="M223.3,210.8c-4.3,0-7.7,3.5-7.7,7.7c0,4.3,3.5,7.7,7.7,7.7s7.7-3.5,7.7-7.7
							C231,214.2,227.5,210.8,223.3,210.8z"/>
						<path id="XMLID_104_" class="st2" d="M281.5,246.5c-1-8.3-4.9-13.6-16.2-13.6c-6.7,0-11.2,2.5-13,6h-0.2v-6h-12.3v8.5v35.7
							h12.9v-21.9c0-5.8,1.1-11.4,8.2-11.4c7,0,7.6,6.6,7.6,11.8v21.6h13.3v-24.3l0,0C281.9,250.5,281.8,248.4,281.5,246.5z"/>
					</g>
				</g>
				<g class="st5">
					<path id="XMLID_75_" class="st14" d="M456,246.8c0,30.9-25.1,56-56,56s-56-25.1-56-56s25.1-56,56-56
						C430.9,190.8,456,215.8,456,246.8z"/>
					<path class="st2" d="M401.2,228.5l20.9,12.9l-20.9,12.9l-20.9-12.9L401.2,228.5z M422,264.8l-6.2,4.1l-14.5-12l-14.5,12
						l-6.2-4.1v4.6l20.7,12.4l20.7-12.4V264.8L422,264.8L422,264.8z M422.1,241.4l14.3-11.5l-20.7-13.5l-14.5,12.1l-14.5-12.1
						L366,229.9l14.3,11.5L366,252.8l20.7,13.5l14.5-12.1l14.5,12.1l20.7-13.5L422.1,241.4z"/>
				</g>
			</g>
			<g class="st3">
				<g class="st5">
					<path id="XMLID_11_" class="st15" d="M761.5,400c0,30.9-25.1,56-56,56s-56-25.1-56-56s25.1-56,56-56S761.5,369.1,761.5,400z"/>
					<path class="st2" d="M737.8,384.8c-0.9-0.8-4.4-0.7-7.9-0.7s-7.1,0-7.9,0.4c-0.8,0.3-2.5,4.4-4.7,8.6c-2.5,4.8-5.6,9.3-7.5,9.3
						c-2.5,0-1.9-7.9-1.8-13.6c0.1-3.8-0.5-5-1.1-5.4c-1.3-0.9-5-1.8-5-1.8s-11-0.8-12.5,3.9c2.1,0.3,5.7-0.4,4.3,14.3
						c-0.1,0.7-1.7,6.8-6.8-1.4c-1.3-2-6.2-14.3-7.9-14.3c-5.7-0.2-11.3-0.4-13.3,0.7c-1.8,1,2.5,9.5,9.7,20.8
						c5.9,9.2,12.1,16.5,22.9,18.3c2,0.2,7.3,0.4,9-0.4c1.1-0.6-0.2-8.6,3.6-9.3c1.7-0.3,8.3,8.3,10.8,9.3c1.5,0.6,4.8,0.8,8.2,0.7
						c3.7-0.1,7.8,0.3,8.2-2.2c0.9-5.5-11.1-12.7-11.5-16.1c-0.3-2.4,4.4-7,6.8-10.4C736.5,391.3,739.7,386.3,737.8,384.8z"/>
				</g>
				<g class="st5">
					<path id="XMLID_49_" class="st16" d="M608.8,400c0,30.9-25.1,56-56,56s-56-25.1-56-56s25.1-56,56-56S608.8,369.1,608.8,400z"/>
					<path id="XMLID_47_" class="st2" d="M585.9,382.9c-2.4,1.1-5.1,1.8-7.8,2.1c2.8-1.7,5-4.3,6-7.4c-2.6,1.5-5.5,2.7-8.6,3.3
						c-2.5-2.6-6-4.2-9.9-4.2c-7.5,0-13.6,6-13.6,13.4c0,1.1,0.1,2.1,0.3,3.1c-11.3-0.6-21.3-5.9-28.1-14c-1.2,2-1.8,4.3-1.8,6.7
						c0,4.6,2.4,8.7,6.1,11.2c-2.2-0.1-4.3-0.7-6.2-1.7c0,0.1,0,0.1,0,0.2c0,1.7,0.3,3.4,0.9,4.9c1.7,4.2,5.4,7.4,10,8.3
						c-1.1,0.3-2.3,0.5-3.6,0.5c-0.9,0-1.7-0.1-2.6-0.2c1.7,5.3,6.8,9.2,12.7,9.3c-4.7,3.6-10.5,5.7-16.9,5.7
						c-1.1,0-2.2-0.1-3.3-0.2c6,3.8,13.2,6,20.9,6c21.3,0,34.4-14.7,37.8-30c0.6-2.7,0.9-5.4,0.9-8.1c0-0.6,0-1.2,0-1.7
						C581.8,388,584.1,385.6,585.9,382.9z"/>
				</g>
				<g class="st5">
					<path id="XMLID_71_" class="st17" d="M303.3,400c0,30.9-25.1,56-56,56s-56-25.1-56-56s25.1-56,56-56S303.3,369.1,303.3,400z"/>
					<path class="st2" d="M281.8,397.3c-0.1-1.9-0.3-3.8-0.7-5.7c-0.5-2.2-1.1-4.4-2-6.5s-1.9-4-3.2-5.9c-1.2-1.8-2.7-3.5-4.2-5.1
						c-1.6-1.6-3.3-3-5.1-4.2c-1.8-1.2-3.8-2.3-5.9-3.2c-2.1-0.9-4.3-1.6-6.5-2c-2.3-0.5-4.6-0.7-7-0.7c-2.3,0-4.7,0.2-7,0.7
						c-2.2,0.5-4.4,1.1-6.5,2s-4,1.9-5.9,3.2c-1.8,1.2-3.5,2.7-5.1,4.2c-1.6,1.6-3,3.3-4.2,5.1c-1.2,1.8-2.3,3.8-3.2,5.9
						s-1.6,4.3-2,6.5c-0.4,1.8-0.6,3.5-0.7,5.3c0,0.5,0,1.1,0,1.6c0,2.3,0.2,4.7,0.7,7c0.5,2.2,1.1,4.4,2,6.5c0.9,2,1.9,4,3.2,5.9
						c1.2,1.8,2.7,3.5,4.2,5.1c1.6,1.6,3.3,3,5.1,4.2s3.8,2.3,5.9,3.2c2.1,0.9,4.3,1.6,6.5,2c2.3,0.5,4.6,0.7,7,0.7
						c2.3,0,4.7-0.2,7-0.7c2.2-0.5,4.4-1.1,6.5-2c2-0.9,4-1.9,5.9-3.2c1.8-1.2,3.5-2.7,5.1-4.2c1.6-1.6,3-3.3,4.2-5.1
						c1.2-1.8,2.3-3.8,3.2-5.9c0.9-2.1,1.6-4.3,2-6.5c0.5-2.3,0.7-4.6,0.7-7C281.8,398.1,281.8,397.7,281.8,397.3z M247.3,369.1
						c7.5,0,14.3,2.8,19.5,7.4c-0.1,0.1-4.3,6.5-15.4,10.7c-5-9.3-10.6-16.6-11-17.2C242.5,369.3,244.9,369.1,247.3,369.1z
						 M240.2,369.9L240.2,369.9L240.2,369.9C240.1,369.9,240.2,369.9,240.2,369.9z M234.7,371.9c0.4,0.5,5.9,7.9,11,17
						c-14.2,3.8-26.5,3.6-27.2,3.6C220.3,383.3,226.4,375.8,234.7,371.9z M225.3,418.3c-4.7-5.2-7.6-12.1-7.6-19.7
						c0-0.3,0-0.6,0-0.9c0.5,0,15.1,0.3,30.3-4.2c0.8,1.7,1.7,3.3,2.4,5c-0.4,0.1-0.8,0.2-1.2,0.4
						C233.4,403.9,225.3,418.3,225.3,418.3L225.3,418.3z M247.3,428.1c-6.8,0-13.1-2.3-18.1-6.3l0,0c0,0-0.3-0.2-0.7-0.5
						c0.2,0.2,0.4,0.3,0.7,0.5c0.1-0.1,5.7-12.4,23.1-18.4c0.1,0,0.1,0,0.2-0.1c4.2,10.8,5.9,19.8,6.3,22.4
						C255.2,427.2,251.3,428.1,247.3,428.1z M263.7,423c-0.3-1.8-1.9-10.4-5.7-21.1c9.5-1.5,17.8,1.1,18.4,1.3
						C275.1,411.5,270.4,418.6,263.7,423z M256.2,397.3c-0.2-0.5-0.4-1-0.6-1.5c-0.4-1-0.9-2.1-1.4-3.1c-0.2-0.4-0.4-0.8-0.6-1.2
						c11.7-4.8,16.4-11.6,16.4-11.7c3.7,4.5,6,10,6.6,16.1c0.1,0.8,0.1,1.6,0.1,2.4C276.3,398.2,266.3,396,256.2,397.3z"/>
				</g>
				<g class="st5">
					<circle id="XMLID_45_" class="st18" cx="400" cy="400" r="56"/>
					<path id="XMLID_43_" class="st2" d="M432.5,418L432.5,418L432.5,418C432.5,418,432.4,418,432.5,418L432.5,418
						c-0.9-0.6-1.7-0.6-2.2-0.8l0,0c-3.4-1.1-6.4-3.4-8.6-6.3c-1.2-1.6-2.3-3.3-3-5.2l0,0c-0.3-0.8-0.3-1.7,0.1-2.2l0,0
						c0.6-0.9,1.8-1.5,3-1.9l0,0c1.3-0.5,2.8-1,4-2.1l0,0c0.2-0.2,0.4-0.4,0.6-0.7c0-0.1,0.1-0.2,0.1-0.3c0.1-0.3,0.1-0.7-0.1-1.1
						l0,0c-0.4-0.7-1-1.1-1.4-1.3l0,0c-0.8-0.4-1.6-0.5-2.4-0.2l0,0l0,0c-0.8,0.3-1.5,0.5-2.1,0.6l0,0c-0.9,0.2-1.8,0.2-2.4-0.1
						c0-0.1,0-0.3,0-0.5l0,0c0-1.5,0.1-3,0.1-4.5l0,0c0.1-2.4,0.2-4.8-0.2-7.3l0,0c-0.8-4.2-3.4-7.7-6.8-10.1
						c-2.5-1.7-5.4-2.7-8.4-3l0,0c-1-0.1-2-0.1-3-0.1c-4,0-8.2,1.1-11.4,3.6c-2.4,1.9-4.4,4.4-5.6,7.2l0,0c-1.2,2.9-1,6-0.9,8.9l0,0
						c0.1,2,0.3,4,0.1,5.8c0,0.1,0,0.1,0,0.1c-0.9,0.2-1.9,0.1-2.9-0.1l0,0c-0.7-0.1-1.4-0.4-2.2-0.6l0,0c-0.8-0.2-1.6,0-2.1,0.5
						l0,0l0,0c-0.5,0.3-1.1,0.8-1.2,1.8c0,0.1,0,0.1,0,0.2l0,0c0.1,0.5,0.4,0.9,0.7,1.2c0.3,0.3,0.6,0.4,0.8,0.6l0,0
						c1.5,1,3.1,1.4,4.5,1.9l0,0c1,0.4,1.8,1.1,2,1.9c0.2,1.1-0.2,2.3-0.8,3.4l0,0c-1.6,3.1-3.9,5.8-6.8,7.8c-1.5,1-3.2,1.8-5,2.3
						c0,0,0,0-0.1,0c-0.4,0.1-1.2,0.2-1.8,1c0,0.1-0.1,0.1-0.1,0.2c-0.2,0.5,0,1.1,0.3,1.4c0.2,0.3,0.5,0.5,0.8,0.6l0,0
						c1.5,0.9,3.1,1.2,4.6,1.6l0,0c1.1,0.2,2.1,0.4,2.9,0.7c0,0.1,0.1,0.3,0.3,0.8c0.3,0.8,0.4,1.8,0.7,2.8c0.1,0.3,0.3,0.5,0.6,0.6
						c0.7,0.1,1.1-0.1,1.1-0.1h0.1c2.5-0.4,5-0.8,7.3-0.2l0,0c2.4,0.6,4.5,2.3,6.9,3.7l0,0l0,0c1.6,1,3.4,1.9,5.5,2l0,0l0,0
						c1.6,0.1,3.1,0,4.7-0.1l0,0c1.3-0.1,2.6-0.6,3.7-1.3l0,0c2.5-1.4,4.7-3.1,7.1-4.2l0,0c0.8-0.3,1.8-0.3,2.9-0.3l0,0
						c2-0.1,4,0,6,0.3c0.1,0,0.1,0,0.2,0c0.3,0,0.5-0.2,0.7-0.4c0.1-0.2,0.2-0.3,0.2-0.4c0.1-0.2,0.1-0.3,0-0.1
						c0-0.1,0.1-0.1,0.1-0.2c0.4-1.2,0.6-2.3,1.2-3c0.3-0.3,0.7-0.4,1.2-0.4h0.1c1.7-0.2,3.3-0.8,4.8-1.3l0,0
						c0.6-0.2,1.4-0.5,1.9-1.3l0,0l0,0C433.4,419.4,433.2,418.5,432.5,418z"/>
				</g>
				<g class="st5">
					<path id="XMLID_109_" class="st19" d="M150.5,400c0,30.9-25.1,56-56,56s-56-25.1-56-56s25.1-56,56-56
						C125.5,344,150.5,369.1,150.5,400z"/>
					<path class="st2" d="M130.1,384.7c-4.1,23.1-27,42.6-33.9,47.1S83,430,80.7,425.3c-2.6-5.4-10.4-34.6-12.5-37.1
						c-2-2.4-8.2,2.4-8.2,2.4l-3-3.9c0,0,12.5-14.9,22-16.8c10.1-2,10.1,15.5,12.5,25.1c2.3,9.4,3.9,14.7,6,14.7
						c2,0,6-5.2,10.2-13.2c4.3-8-0.2-15.1-8.6-10.1C102.6,366.5,134.2,361.6,130.1,384.7z"/>
				</g>
			</g>
			<g class="st3">
				<g class="st5">
					<path id="XMLID_96_" class="st20" d="M761.5,553.2c0,30.9-25.1,56-56,56s-56-25.1-56-56s25.1-56,56-56S761.5,522.3,761.5,553.2
						z"/>
					<g>
						<path id="XMLID_94_" class="st2" d="M707.5,522.9c16.5,2.5,24.2,10.2,26.3,26.5c0,0.1,0,0.2,0,0.4c0.1,1.5-0.2,3.4,1.8,3.4
							c1.8,0,1.8-1.3,1.8-2.5c0-0.4,0-0.8,0-1.2c0.2-15.4-13.5-29.6-29.4-30.2c-1.2,0.2-3.7-0.8-3.8,1.8
							C704.1,523,706.1,522.7,707.5,522.9z"/>
						<path id="XMLID_93_" class="st2" d="M710.7,527.4c-1.6-0.2-3.7-0.9-4.1,1.2c-0.4,2.3,1.9,2,3.5,2.4
							c10.2,2.2,13.8,5.9,15.4,15.8c0.1,0.4,0.1,0.9,0.1,1.4c0.1,1.2,0.4,2.2,2.1,1.9c0.9-0.1,1.2-0.7,1.3-1.3c0.1-0.7,0-1.4,0-2
							C729.3,537.3,720.9,528.6,710.7,527.4z"/>
						<path id="XMLID_92_" class="st2" d="M711.7,535.2c-1.1,0-2.1,0.1-2.5,1.3c-0.6,1.7,0.6,2.1,1.9,2.3c4.2,0.7,6.4,3.1,6.8,7.2
							c0.1,0.5,0.2,1,0.5,1.3c0.3,0.4,0.8,0.6,1.4,0.5c0.3,0,0.6-0.1,0.8-0.3c0.7-0.5,0.8-1.5,0.8-2.5
							C721.5,540.4,716.2,535.1,711.7,535.2z"/>
						<path id="XMLID_91_" class="st2" d="M732.9,567.4c-2.1-1.6-4.3-3.1-6.4-4.6c-4.3-3-8.3-3.2-11.5,1.6c-1.8,2.7-4.4,2.8-7,1.6
							c-7.3-3.3-13-8.3-16.3-15.6c-0.5-1.1-0.8-2.2-0.9-3.3c-0.1-1.9,0.7-3.6,2.9-5.1c1.8-1.2,3.6-2.6,3.5-5.3
							c-0.2-3.4-8.7-14.9-12.1-16.1c-1.4-0.5-2.8-0.5-4.2,0c-7.9,2.6-11.2,9-8,16.5c1.7,4.2,3.7,8.1,5.9,11.8
							c9.7,16.2,24,28.1,42.4,35.8c1.3,0.5,2.7,0.8,3.4,1c5.1,0.1,11.2-4.8,12.9-9.6C739.2,571.4,735.7,569.6,732.9,567.4z"/>
					</g>
				</g>
				<g class="st5">
					<path id="XMLID_54_" class="st21" d="M456,553.2c0,30.9-25.1,56-56,56s-56-25.1-56-56s25.1-56,56-56S456,522.3,456,553.2z"/>
					<g>
						<path id="XMLID_52_" class="st2" d="M409.6,530.8c2.3-2.8,3.8-6.7,3.4-10.6c-3.3,0.1-7.2,2.2-9.6,5c-2.1,2.5-3.9,6.5-3.5,10.3
							C403.6,535.8,407.3,533.6,409.6,530.8z"/>
						<path id="XMLID_51_" class="st2" d="M417.8,555.5c0-2.7,0.6-4.9,1.6-6.7c2-3.9,5.3-5.8,5.5-6c-3.8-5.7-9.8-6.5-11.9-6.6
							c-5.1-0.5-9.9,3-12.5,3s-6.6-3-10.8-2.9c-5.5,0.1-10.6,3.3-13.5,8.3c-0.9,1.6-1.5,3.2-2,5c-2.4,9.6,1.4,21.5,6.1,28.4
							c2.7,4,6,8.6,10.3,8.4c4.1-0.2,5.7-2.7,10.7-2.7s6.4,2.7,10.8,2.6c4.4-0.1,7.3-4.1,10-8.2c3.1-4.7,4.4-9.2,4.5-9.4
							C426.4,568.8,417.9,565.5,417.8,555.5z"/>
					</g>
				</g>
				<g class="st5">
					<path id="XMLID_89_" class="st22" d="M150.5,553.2c0,30.9-25.1,56-56,56s-56-25.1-56-56s25.1-56,56-56
						C125.5,497.2,150.5,522.3,150.5,553.2z"/>
					<g>
						<path class="st2" d="M123.3,544.4c4.4-1.1,4.4-4.4,4.4-4.4h-11.1c-6.6-6.6-13.3-8.9-22.1-8.9S79,533.3,72.4,540H61.3
							c0,0,0,3.3,4.4,4.4c-0.8,1.1-1.7,2.6-2.5,4.2c-1.1,2.3-1.9,4.8-1.9,6.9c0,9.1,6.4,15.5,15.5,15.5c5.2,0,10.2-2.9,13.3-6.6
							l4.4,6.6l4.4-6.6c3,3.7,8.1,6.6,13.3,6.6c9.1,0,15.5-6.4,15.5-15.5c0-2-0.8-4.4-1.8-6.6C125.1,547.2,124.1,545.6,123.3,544.4z
							 M76.8,566.5c-6.1,0-11.1-4.9-11.1-11.1c0-3.3,1.4-6.2,3.7-8.2c2-1.8,4.5-2.8,7.4-2.8c1.7,0,3.4,0.4,4.8,1.1
							c3.7,1.8,6.2,5.6,6.2,9.9C87.9,561.5,82.9,566.5,76.8,566.5z M94.5,562.1c0-6.4-2.9-12.7-7.1-17c-3.1-3.1-6.8-5.1-10.6-5.1
							c0,0,6.6-6.6,17.7-6.6s17.7,6.6,17.7,6.6c-3.8,0-7.5,2-10.6,5.2C97.4,549.4,94.5,555.7,94.5,562.1z M112.2,566.5
							c-6.1,0-11.1-4.9-11.1-11.1c0-4.3,2.5-8,6.1-9.9c1.5-0.8,3.2-1.2,5-1.2c3,0,5.7,1.2,7.7,3.1c2.1,2,3.4,4.8,3.4,8
							C123.3,561.5,118.3,566.5,112.2,566.5z"/>
						<path id="XMLID_83_" class="st2" d="M112.2,553.2c-1.2,0-2.2,1-2.2,2.2s1,2.2,2.2,2.2s2.2-1,2.2-2.2
							C114.4,554.2,113.4,553.2,112.2,553.2z"/>
						<path class="st2" d="M112.2,548.8c-3.7,0-6.6,3-6.6,6.6c0,3.7,3,6.6,6.6,6.6c3.7,0,6.6-3,6.6-6.6
							C118.9,551.8,115.9,548.8,112.2,548.8z M112.2,559.9c-2.4,0-4.4-2-4.4-4.4s2-4.4,4.4-4.4s4.4,2,4.4,4.4
							S114.7,559.9,112.2,559.9z"/>
						<path id="XMLID_80_" class="st2" d="M76.8,553.2c-1.2,0-2.2,1-2.2,2.2s1,2.2,2.2,2.2s2.2-1,2.2-2.2S78,553.2,76.8,553.2z"/>
						<path class="st2" d="M76.8,548.8c-3.7,0-6.6,3-6.6,6.6c0,3.7,3,6.6,6.6,6.6c3.7,0,6.6-3,6.6-6.6
							C83.5,551.8,80.5,548.8,76.8,548.8z M76.8,559.9c-2.4,0-4.4-2-4.4-4.4s2-4.4,4.4-4.4s4.4,2,4.4,4.4
							C81.3,557.9,79.3,559.9,76.8,559.9z"/>
					</g>
				</g>
				<g class="st5">
					<g>
						<path id="XMLID_8_" class="st23" d="M303.3,553.2c0,30.9-25.1,56-56,56s-56-25.1-56-56s25.1-56,56-56S303.3,522.3,303.3,553.2
							z"/>
					</g>
					<g>
						<path class="st2" d="M220.9,556.1h11.8c2.6,0,7.1,1.1,7.1,6.2c0,2.6-2.1,5.7-4.7,5.7h-14.2L220.9,556.1L220.9,556.1z
							 M258.7,532.5h21.2v7.1h-21.2V532.5z M277.1,556.1h-15.6c0.5-4.2,3.7-7,7.8-7C273.5,549.1,276.5,552,277.1,556.1L277.1,556.1z
							 M261.1,560.9h26c0-0.4,0-0.8,0-1.2c0-9.8-7-17.7-17.7-17.7s-17.7,7.9-17.7,17.7s7,17.7,17.7,17.7c10.6,0,15.7-6.1,17.3-14.2
							h-9.6c-0.9,4.1-3.3,7.1-7.8,7.1C264.9,570.3,261.4,566.2,261.1,560.9L261.1,560.9z M249.3,563.2c0-5.2-3.4-9.6-8-11.2
							c3.3-2.1,5.6-5.8,5.6-10c0-6.6-5.3-11.8-11.8-11.8h-23.6v47.2h23.6C242.9,577.4,249.3,571,249.3,563.2L249.3,563.2z
							 M232.7,549.1h-11.8v-9.5h11.8c2.6,0,4.8,2.1,4.8,4.7S235.3,549.1,232.7,549.1L232.7,549.1z"/>
					</g>
				</g>
				<g class="st5">
					<path id="XMLID_1_" class="st24" d="M608.8,553.2c0,30.9-25.1,56-56,56s-56-25.1-56-56s25.1-56,56-56S608.8,522.3,608.8,553.2z
						"/>
					<g>
						<path class="st2" d="M578.9,537.5c0,0,1.2-10.3-8.2-10.8c-9.3-0.5-10.9-0.6-15-0.9c-0.7-7.3-19.3-6.7-19.3-1.7
							s0.1,9.3-0.9,11.2c-0.9,1.7-5.3,0.8-10.3,0.9c-3,0-4,2.4-4.3,3.4c-0.8,3,3.5,23.8,4.7,25.9c1.9,3.2,20,6.6,22.3,5.2
							c2.4-1.5,2.6-7.4,3-7.3c0.5,0,1.1,3.3,2.6,3.9c4.3,1.5,9.7,2.2,12,3.4c2.6,1.5,3.7,10.2,1.3,12.1c-1.6,1.2-4.4,0.4-7.7,0.4
							c-3.4,0-2.9-5.1-1.3-5.2c1.4-0.1,3.4,0,3.4,0s0-4.3,0-5.2c-2.1,0.1-7.5-1-10.7,3.9c-1.5,2.2-1.3,9.8,2.2,12.5
							c4.1,3.3,16.3,2.9,17.6,2.2C583.3,583.9,578.9,537.5,578.9,537.5z M569.9,554.7c-1.4-0.8-5.2-1-7.3-0.4
							c-0.8-1.4,0.5-4.6,4.3-4.3C570.5,550.3,570,554.2,569.9,554.7z"/>
						<path class="st2" d="M533.8,534.4c1-0.7,0.7-10.9,0-11.2s-11.2,11-11.2,11.2C522.6,534.6,532.8,535.1,533.8,534.4z"/>
					</g>
				</g>
			</g>
			<g class="st3">
				<g class="st5">
					<path id="XMLID_6_" class="st25" d="M150.5,706.4c0,30.9-25.1,56-56,56s-56-25.1-56-56s25.1-56,56-56
						C125.5,650.4,150.5,675.5,150.5,706.4z"/>
					<g>
						<path class="st2" d="M117.3,694.8c-2.6,0.1-4.5,1.1-4.5,4.3c0,7.2,0,21.4,0,25.1c0,3.8-7.2,4.6-7.2-0.3c0-4.9-0.1-9.2,0-16.3
							c-3.5-20.4-24-13.3-25-6.7c0-7.6,0-11.2,0-16c-2.2-10-10.7-5.3-10.7-5.3s-0.3,44.4-0.3,49.2s10.9,5.2,10.9-0.3
							s-0.1-13.5,0-18.2c0.1-8.3,14.4-9.4,14.4-0.5c0,5.9,0.3,7.6,0.3,13.6s7.5,9.6,14.1,9.6s14.1-3.2,14.1-10.7s0-18.4,0-24.1
							C123.4,695.6,120.1,694.6,117.3,694.8z"/>
						<path class="st2" d="M118.1,689.7c5.8-0.2,5.6-5.6,5.6-5.6s0.1-5.8-6.1-5.6s-5.6,5.9-5.6,5.9S112.3,689.8,118.1,689.7z"/>
					</g>
				</g>
				<g class="st5">
					<path id="XMLID_102_" class="st26" d="M608.8,706.4c0,30.9-25.1,56-56,56s-56-25.1-56-56s25.1-56,56-56
						S608.8,675.5,608.8,706.4z"/>
					<g>
						<path class="st2" d="M533,689.5c-8,0-14.5,5.8-15.6,13.4l0,0l0,0c-0.1,0.7-0.1,1.4-0.1,2.1c0,8.6,7,15.5,15.7,15.5
							s15.7-6.9,15.7-15.5c0-2.3-0.5-4.5-1.4-6.5C544.8,693.2,539.4,689.5,533,689.5z M519.5,702.4c4-1,8.1-1.9,12.3-2.5
							C527.6,700.5,523.5,701.4,519.5,702.4z"/>
						<path id="XMLID_97_" class="st2" d="M588.1,703.8c-0.6-8-7.4-14.3-15.6-14.3c-6.4,0-11.9,3.8-14.3,9.1
							c-0.9,1.9-1.4,4.1-1.4,6.3c0,8.6,7,15.5,15.7,15.5s15.7-6.9,15.7-15.5C588.1,704.6,588.1,704.2,588.1,703.8z"/>
					</g>
				</g>
				<g class="st5">
					<path id="XMLID_4_" class="st27" d="M303.3,706.4c0,30.9-25.1,56-56,56s-56-25.1-56-56s25.1-56,56-56S303.3,675.5,303.3,706.4z
						"/>
					<path class="st2" d="M247.6,688.7c-2.3,0-4.1,1.8-4.1,4.1v24.6c0,9.6-7.9,17.5-17.5,17.5c-9.7,0-17.5-7.8-17.5-17.5V707h13.4
						v10.3c0,2.3,1.8,4.1,4.1,4.1s4.1-1.8,4.1-4.1v-24.6c0-9.6,7.9-17.5,17.5-17.5c9.7,0,17.5,7.8,17.5,17.5v4.7L257,700l-5.3-2.6
						v-4.7C251.7,690.5,249.9,688.7,247.6,688.7z M269.2,734.8c-9.7,0-17.5-7.8-17.5-17.5v-10.5l5.3,2.6l8.1-2.6v10.5
						c0,2.3,1.8,4.1,4.1,4.1c2.3,0,4.1-1.8,4.1-4.1V707h13.4v10.3l0,0C286.8,727,278.9,734.8,269.2,734.8z"/>
				</g>
				<g class="st5">
					<path id="XMLID_59_" class="st28" d="M761.5,706.4c0,30.9-25.1,56-56,56s-56-25.1-56-56s25.1-56,56-56S761.5,675.5,761.5,706.4
						z"/>
					<g id="lastfm">
						<g>
							<path class="st2" d="M730.2,703.4c-6.1-1.8-8.2-2.8-8.2-4.8c0-3.3,4.8-4.6,5.4-4.7c3.1-0.5,8.1,0.8,9.4,4.9l8.3-2.5
								c-2.6-8.2-11.5-11.8-19-10.7c-7.6,1.1-12.5,6.6-12.5,13c0,8.6,8.1,11.1,14.1,12.9c6.4,1.9,8.6,3,8.6,5.3c0,2-1.6,3.4-4.7,4.2
								c-6.2,1.6-14.4-0.5-16.7-4.2c-1.3-2.2-2.5-5.3-3.7-8.5c-3.7-9.6-8.7-22.9-23.2-22.9c-7.6,0-20.3,3.1-20.3,23.7
								c0,8.5,6.2,19.8,20,19.8c11.6,0,13.6-4.2,14-5l-3.8-7.4c-0.1,0.1-3.6,4.8-10.3,4.8c-10.9,0-11.3-12.1-11.3-12.2
								c0-10.7,3.5-15.3,11.6-15.3c7.9,0,11.1,6.9,15.1,17.4c1.4,3.6,2.7,7,4.4,9.8c3.6,6,11.9,8.1,19.6,8.1c2.4,0,4.7-0.3,6.8-0.8
								c6.9-1.8,11.1-5.6,11.1-11.5C745,707.8,736.5,705.3,730.2,703.4z"/>
						</g>
					</g>
				</g>
				<g class="st5">
					<path id="XMLID_50_" class="st29" d="M456,706.4c0,30.9-25.1,56-56,56s-56-25.1-56-56s25.1-56,56-56S456,675.5,456,706.4z"/>
					<path class="st2" d="M385.8,688.9h-14.1l8.3,14.7l-11,18.3h14l11.1-18.3L385.8,688.9z M414.4,677.2l-22.2,39l14.3,25.1h14.9
						l-14.3-25.1l22.2-39H414.4L414.4,677.2z"/>
				</g>
			</g>
		</g>
	</g>
</g>
<g id="Layer_1" class="st3">
</g>
</svg>
